<?xml version="1.0" standalone="no"?>
<!DOCTYPE svg PUBLIC "-//W3C//DTD SVG 20010904//EN"
 "http://www.w3.org/TR/2001/REC-SVG-20010904/DTD/svg10.dtd">
<svg version="1.0" xmlns="http://www.w3.org/2000/svg"
 width="1294.000000pt" height="176.000000pt" viewBox="0 0 1294.000000 176.000000"
 preserveAspectRatio="xMidYMid meet">

<g transform="translate(0.000000,176.000000) scale(0.100000,-0.100000)"
fill="#000000" stroke="none">
<path d="M546 1011 c-8 -12 -15 -498 -8 -523 5 -19 52 -26 52 -8 0 5 16 12 36
16 21 4 31 10 24 14 -7 4 -1 9 17 13 15 3 37 12 48 20 18 14 18 17 4 34 -8 10
-14 24 -13 31 1 6 2 91 3 188 1 130 4 173 13 168 6 -4 8 -3 4 4 -3 5 -3 12 1
15 5 2 2 2 -6 0 -7 -2 -19 3 -25 11 -13 17 -141 32 -150 17z"/>
<path d="M745 431 c-3 -5 -20 -7 -38 -4 -18 2 -67 -5 -112 -17 -115 -31 -115
-31 -115 -43 0 -6 22 -8 63 -3 97 10 102 11 108 18 3 5 18 9 35 10 16 1 31 5
34 8 3 3 16 14 30 23 13 9 19 17 13 17 -7 0 -14 -4 -18 -9z"/>
</g>
</svg>
